<svg xmlns="http://www.w3.org/2000/svg" width="80" height="80" viewBox="0 0 80 80"><defs><clipPath id="imbfa"><path fill="#fff" d="M40 0c22.091 0 40 17.908 40 40 0 22.091-17.909 40-40 40S0 62.09 0 40C0 17.908 17.909 0 40 0z"/></clipPath><clipPath id="imbfb"><path fill="#fff" d="M29 40h11V29h1v11h11v1H41v11h-1V41H29z"/></clipPath></defs><g><g><g><path fill="none" stroke="#fff" stroke-miterlimit="20" stroke-width="2" d="M40 0c22.091 0 40 17.908 40 40 0 22.091-17.909 40-40 40S0 62.09 0 40C0 17.908 17.909 0 40 0z" clip-path="url(&quot;#imbfa&quot;)"/></g><g><path fill="none" stroke="#fff" stroke-miterlimit="20" stroke-width="2" d="M29 40h11V29h1v11h11v1H41v11h-1V41H29z" clip-path="url(&quot;#imbfb&quot;)"/></g></g></g></svg>